HIERARCHY
ROOT Hips
{
 OFFSET 0.000000 0.000000 0.000000
 CHANNELS 6 Xposition Yposition Zposition Yrotation Xrotation Zrotation
 JOINT Chest
 {
  OFFSET 0.000000 9.585900 0.002600
  CHANNELS 3 Yrotation Xrotation Zrotation
  JOINT Chest2
  {
   OFFSET 0.000000 9.601200 -0.005300
   CHANNELS 3 Yrotation Xrotation Zrotation
   JOINT Chest3
   {
    OFFSET 0.000000 9.561800 0.000000
    CHANNELS 3 Yrotation Xrotation Zrotation
    JOINT Chest4
    {
     OFFSET 0.000000 9.552100 0.000000
     CHANNELS 3 Yrotation Xrotation Zrotation
     JOINT Neck
     {
      OFFSET 0.000000 14.453000 0.000000
      CHANNELS 3 Yrotation Xrotation Zrotation
      JOINT Head
      {
       OFFSET 0.000000 8.936500 -0.011300
       CHANNELS 3 Yrotation Xrotation Zrotation
       End Site
       {
        OFFSET 0.000000 17.073600 -0.006000
       }
      }
     }
     JOINT RightCollar
     {
      OFFSET -2.921100 9.558500 0.000000
      CHANNELS 3 Yrotation Xrotation Zrotation
      JOINT RightShoulder
      {
       OFFSET -13.519700 0.000000 0.000000
       CHANNELS 3 Yrotation Xrotation Zrotation
       JOINT RightElbow
       {
        OFFSET 0.000000 -29.696600 0.000000
        CHANNELS 3 Yrotation Xrotation Zrotation
        JOINT RightWrist
        {
         OFFSET 0.000000 -24.004700 0.000000
         CHANNELS 3 Yrotation Xrotation Zrotation
         End Site
         {
          OFFSET 0.000000 -17.728500 0.000000
         }
        }
       }
      }
     }
     JOINT LeftCollar
     {
      OFFSET 2.921100 9.558500 0.000000
      CHANNELS 3 Yrotation Xrotation Zrotation
      JOINT LeftShoulder
      {
       OFFSET 13.519700 0.000000 0.000000
       CHANNELS 3 Yrotation Xrotation Zrotation
       JOINT LeftElbow
       {
        OFFSET 0.000000 -29.696600 0.000000
        CHANNELS 3 Yrotation Xrotation Zrotation
        JOINT LeftWrist
        {
         OFFSET 0.000000 -24.004700 0.000000
         CHANNELS 3 Yrotation Xrotation Zrotation
         End Site
         {
          OFFSET 0.000000 -17.728500 0.000000
         }
        }
       }
      }
     }
    }
   }
  }
 }
 JOINT RightHip
 {
  OFFSET -7.771700 -0.012900 -0.001300
  CHANNELS 3 Yrotation Xrotation Zrotation
  JOINT RightKnee
  {
   OFFSET 0.000000 -40.869800 0.001200
   CHANNELS 3 Yrotation Xrotation Zrotation
   JOINT RightAnkle
   {
    OFFSET 0.000000 -39.717900 0.002100
    CHANNELS 3 Yrotation Xrotation Zrotation
    JOINT RightToe
    {
     OFFSET 0.000000 -4.965400 11.033500
     CHANNELS 3 Yrotation Xrotation Zrotation
     End Site
     {
      OFFSET 0.000000 -1.423100 5.872300
     }
    }
   }
  }
 }
 JOINT LeftHip
 {
  OFFSET 7.771700 -0.012900 -0.001300
  CHANNELS 3 Yrotation Xrotation Zrotation
  JOINT LeftKnee
  {
   OFFSET 0.000000 -40.869800 0.001200
   CHANNELS 3 Yrotation Xrotation Zrotation
   JOINT LeftAnkle
   {
    OFFSET 0.000000 -39.717900 0.002100
    CHANNELS 3 Yrotation Xrotation Zrotation
    JOINT LeftToe
    {
     OFFSET 0.000000 -4.965400 11.033500
     CHANNELS 3 Yrotation Xrotation Zrotation
     End Site
     {
      OFFSET 0.000000 -1.423100 5.872300
     }
    }
   }
  }
 }
}
MOTION
Frames: 14
Frame Time: 0.008333
0.000000 85.388000 0.000000 0.000000 -5.767877 0.000000 0.000000 11.653817 0.000000 0.000000 -5.885947 0.000000 0.000000 -0.000000 0.000000 0.000000 -0.000000 0.000000 0.000000 12.528835 0.000000 0.000000 0.711642 0.000000 0.000000 -0.000000 0.000000 0.000000 0.000000 -90.000000 0.000000 -2.309062 0.000000 0.000000 2.309062 0.000000 0.000000 -0.000000 0.000000 0.000000 -0.000000 90.000000 0.000000 -2.309062 0.000000 0.000000 2.309062 0.000000 0.000000 8.520406 0.000000 0.000000 1.905762 0.000000 -0.000000 -4.658285 0.000000 0.000000 -0.000000 0.000000 0.000000 8.520406 0.000000 0.000000 1.905762 0.000000 -0.000000 -4.658285 0.000000 0.000000 -0.000000 0.000000
-44.230342 56.277597 -11.754277 -177.994730 -12.124706 -0.279682 -0.117870 14.805911 -0.545068 0.003281 1.348446 0.021745 0.031746 2.286928 0.014443 0.130520 13.335472 0.160714 1.389895 13.510045 5.704672 0.161871 -11.438180 5.801335 0.682383 -0.087819 1.217505 -1.681795 -8.624778 -6.268409 -91.515316 -56.415333 123.705641 -13.598920 3.154130 -4.351752 -6.486995 -2.310406 1.820777 4.719358 -11.415249 6.282033 65.626537 -47.339768 -109.023529 10.996953 -4.102417 8.834933 -2.847753 -63.128970 11.039817 -26.616318 85.809721 -30.583105 -9.104692 -18.748403 13.404937 0.176014 -0.271707 0.056707 18.524259 -57.371771 -22.105695 68.754956 71.519431 69.701710 -7.078869 -15.126803 0.987877 0.294813 0.880085 0.133401
-44.231268 56.277489 -11.754329 -177.999230 -12.126757 -0.278442 -0.100638 14.812566 -0.553620 0.008188 1.352876 0.018727 0.021704 2.281807 0.023669 0.148252 13.344494 0.149031 1.385592 13.515958 5.709718 0.156071 -11.431796 5.807835 0.667241 -0.100915 1.231443 -1.655588 -8.641792 -6.312596 -91.516521 -56.392868 123.688702 -13.595149 3.161861 -4.363362 -6.501421 -2.324003 1.841113 4.717917 -11.419182 6.287714 65.641781 -47.344623 -109.035157 10.972425 -4.108956 8.846543 -2.855732 -63.125630 11.049942 -26.596643 85.808015 -30.569307 -9.110075 -18.742968 13.408326 0.174793 -0.277114 0.059328 18.529115 -57.370856 -22.105908 68.761435 71.518316 69.704695 -7.074727 -15.123529 0.992789 0.288718 0.875276 0.130423
-44.232366 56.277375 -11.754163 -177.999793 -12.128536 -0.277875 -0.089866 14.815915 -0.560454 0.003544 1.353286 0.022146 0.022942 2.282899 0.023141 0.171493 13.356287 0.134329 1.374941 13.515077 5.724768 0.154483 -11.418530 5.808777 0.650464 -0.112163 1.245731 -1.649568 -8.653053 -6.323243 -91.510452 -56.391393 123.681724 -13.578271 3.215396 -4.345276 -6.522156 -2.337688 1.865816 4.716798 -11.423201 6.292863 65.644933 -47.345958 -109.037907 10.970550 -4.106930 8.849260 -2.866245 -63.121707 11.058052 -26.558755 85.806651 -30.537011 -9.114304 -18.741004 13.409888 0.173597 -0.278185 0.060684 18.530326 -57.368529 -22.103717 68.760426 71.517097 69.699140 -7.077254 -15.124478 0.998132 0.288909 0.875419 0.129739
-44.232243 56.277291 -11.753970 -178.002796 -12.130879 -0.284426 -0.074247 14.818123 -0.558430 0.004257 1.357142 0.020950 0.025155 2.285316 0.022106 0.181938 13.360488 0.130318 1.363128 13.509211 5.741079 0.155552 -11.408880 5.806441 0.643226 -0.120518 1.249231 -1.646323 -8.661845 -6.327140 -91.487280 -56.407710 123.679534 -13.590826 3.201100 -4.364410 -6.534495 -2.345194 1.885200 4.729545 -11.448157 6.302951 65.644685 -47.340527 -109.034055 10.984812 -4.093176 8.847201 -2.887208 -63.116969 11.082314 -26.592249 85.801810 -30.574014 -9.116590 -18.736024 13.411148 0.171531 -0.280331 0.061741 18.528363 -57.366178 -22.094768 68.751768 71.515254 69.698854 -7.088136 -15.131375 0.993418 0.300218 0.880814 0.133393
-44.233535 56.277310 -11.754196 -177.998588 -12.136670 -0.283685 -0.068633 14.824711 -0.565140 0.014378 1.357012 0.013753 0.031364 2.292223 0.018137 0.182574 13.363160 0.135788 1.358758 13.519021 5.744653 0.146823 -11.414797 5.818711 0.635805 -0.128634 1.248961 -1.652920 -8.667298 -6.316149 -91.475258 -56.412971 123.673664 -13.587813 3.213346 -4.362882 -6.537839 -2.352656 1.894565 4.711980 -11.453010 6.316115 65.675856 -47.351681 -109.047332 10.988879 -4.096027 8.847848 -2.893282 -63.112555 11.083377 -26.720200 85.799615 -30.705341 -9.113536 -18.726989 13.415530 0.195003 -0.285319 0.065394 18.529616 -57.357191 -22.100705 68.741904 71.508038 69.693430 -7.092399 -15.134394 0.990580 0.299976 0.880978 0.134912
-44.234711 56.277229 -11.754089 -177.995517 -12.140562 -0.282164 -0.061992 14.832992 -0.571700 0.007231 1.352630 0.018611 0.042120 2.300092 0.011213 0.188933 13.365067 0.133575 1.354053 13.528224 5.742030 0.140061 -11.402342 5.820571 0.632567 -0.140094 1.247707 -1.659557 -8.669197 -6.307602 -91.472159 -56.410185 123.666035 -13.581492 3.242843 -4.351697 -6.548477 -2.361681 1.906802 4.717087 -11.463595 6.319369 65.678183 -47.353505 -109.044867 10.985120 -4.106722 8.856459 -2.897560 -63.109250 11.080808 -26.856690 85.796313 -30.840496 -9.109984 -18.727346 13.413741 0.173554 -0.285883 0.067545 18.532268 -57.351930 -22.107147 68.728523 71.505797 69.684066 -7.091671 -15.131678 0.984162 0.301374 0.879615 0.139247
-44.234886 56.277183 -11.754459 -177.997737 -12.146831 -0.283987 -0.047064 14.844563 -0.572011 0.006048 1.355628 0.016607 0.047417 2.300667 0.011266 0.181777 13.360222 0.138186 1.360008 13.548374 5.728336 0.135729 -11.371385 5.812565 0.645018 -0.144653 1.234465 -1.655559 -8.669918 -6.311553 -91.472297 -56.409342 123.661472 -13.590478 3.234976 -4.359927 -6.546555 -2.366052 1.905796 4.736068 -11.480989 6.328159 65.664192 -47.344459 -109.039856 10.986243 -4.118643 8.863234 -2.902962 -63.102872 11.086723 -26.819917 85.799355 -30.801030 -9.122487 -18.728862 13.409007 0.172942 -0.282903 0.072234 18.531380 -57.348187 -22.101463 68.736608 71.505249 69.693396 -7.094115 -15.130427 0.982936 0.305037 0.875294 0.139801
-44.235082 56.276958 -11.754382 -177.999935 -12.149622 -0.283999 -0.034403 14.850578 -0.572401 0.017145 1.361487 0.011047 0.035054 2.295672 0.017246 0.202476 13.370541 0.128880 1.351786 13.555624 5.729901 0.128293 -11.358066 5.811713 0.636642 -0.160288 1.240685 -1.650993 -8.673841 -6.318326 -91.425192 -56.418752 123.643248 -13.593630 3.195399 -4.389511 -6.564335 -2.377408 1.919742 4.735285 -11.486689 6.335167 65.665246 -47.342557 -109.042477 10.979279 -4.177019 8.884758 -2.916130 -63.096669 11.103857 -26.808940 85.796960 -30.793506 -9.153239 -18.740161 13.411375 0.183169 -0.270245 0.075679 18.534534 -57.348026 -22.098910 68.742334 71.508020 69.698781 -7.096587 -15.127328 0.982034 0.309654 0.869706 0.141451
-44.235011 56.276748 -11.754777 -178.000165 -12.154268 -0.285121 -0.030195 14.856192 -0.571269 0.021362 1.363113 0.009663 0.036222 2.296825 0.016600 0.223718 13.380353 0.119019 1.343079 13.561732 5.732415 0.115219 -11.365398 5.824162 0.660292 -0.178034 1.234173 -1.658594 -8.674152 -6.331333 -91.424185 -56.393932 123.622673 -13.591355 3.199903 -4.390276 -6.582168 -2.385514 1.936464 4.734695 -11.494670 6.340897 65.665150 -47.338220 -109.045578 10.981309 -4.203380 8.898221 -2.923056 -63.090821 11.112595 -26.765460 85.799479 -30.750533 -9.172311 -18.745830 13.413356 0.175226 -0.269859 0.075749 18.532602 -57.346237 -22.092680 68.747739 71.510719 69.703719 -7.099715 -15.126054 0.978797 0.313476 0.865859 0.145132
-44.234639 56.276611 -11.755806 -177.993708 -12.161724 -0.289610 -0.022801 14.866187 -0.568090 0.022089 1.364607 0.009369 0.040445 2.304657 0.013717 0.235299 13.393603 0.114706 1.338437 13.572756 5.723530 0.099743 -11.389017 5.845485 0.646288 -0.203143 1.246581 -1.637097 -8.677262 -6.348559 -91.404152 -56.384781 123.604875 -13.592386 3.222986 -4.380945 -6.597452 -2.404112 1.954488 4.748363 -11.506849 6.340397 65.663509 -47.325462 -109.044360 10.978148 -4.215784 8.905829 -2.937809 -63.080097 11.124509 -26.644588 85.804414 -30.634189 -9.185743 -18.753732 13.418676 0.193916 -0.267629 0.076255 18.518273 -57.341839 -22.081393 68.748717 71.510615 69.709422 -7.112801 -15.125476 0.970944 0.327545 0.863923 0.150710
-44.234249 56.276358 -11.756551 -177.999400 -12.166706 -0.292840 -0.000679 14.883683 -0.569682 0.023591 1.367360 0.008887 0.027682 2.294774 0.022449 0.235420 13.392322 0.115786 1.345337 13.590247 5.709245 0.103135 -11.362679 5.822692 0.670536 -0.206220 1.235242 -1.642987 -8.679292 -6.349311 -91.387679 -56.381877 123.593926 -13.593407 3.216781 -4.387688 -6.587789 -2.403255 1.955221 4.789213 -11.513375 6.331494 65.645539 -47.318933 -109.054495 10.973290 -4.219473 8.911766 -2.941118 -63.070805 11.129774 -26.553137 85.803631 -30.549703 -9.143551 -18.767439 13.422349 0.169276 -0.266661 0.068248 18.514734 -57.339246 -22.069549 68.758176 71.512511 69.717040 -7.109956 -15.131926 0.974073 0.325469 0.865927 0.148169
-44.234382 56.276065 -11.757205 -178.001195 -12.170667 -0.296142 0.011248 14.892776 -0.569919 0.020098 1.365384 0.012126 0.034949 2.300899 0.018588 0.243693 13.397790 0.113421 1.333031 13.580573 5.719229 0.105808 -11.334495 5.796560 0.673941 -0.220965 1.234952 -1.652956 -8.678351 -6.343037 -91.380082 -56.383158 123.592509 -13.595473 3.205737 -4.396792 -6.594281 -2.411105 1.971555 4.794476 -11.516774 6.326345 65.683875 -47.326037 -109.053599 10.988142 -4.191293 8.883850 -2.942644 -63.065213 11.135440 -26.552520 85.801493 -30.548713 -9.137316 -18.768426 13.422560 0.171263 -0.269859 0.069324 18.509876 -57.338854 -22.059447 68.765895 71.516994 69.720981 -7.104874 -15.132526 0.979444 0.321386 0.864676 0.145271
-44.236141 56.275704 -11.757520 -178.000711 -12.172524 -0.293286 0.018764 14.900862 -0.576726 0.016601 1.361838 0.014960 0.041779 2.306255 0.014714 0.273752 13.420248 0.102607 1.309367 13.569969 5.727717 0.099285 -11.333059 5.790864 0.648612 -0.251007 1.249018 -1.664563 -8.678264 -6.331839 -91.378458 -56.384298 123.593867 -13.598091 3.232038 -4.377759 -6.622728 -2.432318 2.003866 4.805997 -11.516680 6.320997 65.691028 -47.332301 -109.056095 10.991776 -4.182770 8.870418 -2.933850 -63.062880 11.128618 -26.623171 85.797990 -30.619363 -9.139683 -18.768384 13.425305 0.167692 -0.271713 0.069563 18.514565 -57.338524 -22.067067 68.774176 71.517225 69.726802 -7.098360 -15.128225 0.983630 0.311618 0.858580 0.142193
